<svg height="512pt" viewBox="0 -6 512.00016 512" width="512pt" xmlns="http://www.w3.org/2000/svg"><path d="m510.140625 148.324219-77.328125-140.550781c-3.992188-7.257813-13.113281-9.90625-20.375-5.910157-7.257812 3.992188-9.902344 13.113281-5.910156 20.371094l77.328125 140.550781c3.992187 7.257813 13.113281 9.90625 20.371093 5.910156 7.257813-3.992187 9.90625-13.113281 5.914063-20.371093zm0 0"/><path d="m80.996094 241.496094-52.832032 29.074218c-4.054687-7.363281-13.191406-9.90625-20.390624-5.945312-7.257813 3.996094-9.90625 13.113281-5.914063 20.375 5.519531 10.03125 38.488281 69.953125 43.496094 79.058594 3.992187 7.257812 13.113281 9.90625 20.375 5.914062 7.191406-3.960937 9.949219-13.046875 5.890625-20.410156l52.832031-29.074219zm0 0"/><path d="m105.917969 193.445312c-7.257813 3.992188-9.902344 13.113282-5.910157 20.371094l57.996094 105.414063c4.003906 7.28125 13.144532 9.886719 20.375 5.910156l39.636719-21.816406c-32.917969-59.648438 10.402344-133.523438 78.949219-133.523438 33.933594 0 63.542968 18.863281 78.910156 46.648438l79.265625-43.625-72.457031-131.699219zm0 0"/><path d="m339.578125 302.273438c37.484375-37.722657 10.792969-102.472657-42.613281-102.472657-53.171875 0-80.125 64.402344-42.792969 102.289063l-105.40625 175.710937c-4.261719 7.101563-1.957031 16.316407 5.144531 20.578125 7.109375 4.261719 16.320313 1.953125 20.578125-5.144531l105.394531-175.683594c11.039063 3.28125 22.765626 3.332031 33.917969.070313l104.316407 175.554687c4.230468 7.121094 13.429687 9.46875 20.554687 5.234375 7.125-4.230468 9.464844-13.433594 5.234375-20.558594zm-42.613281-12.234376c-16.605469 0-30.113282-13.511718-30.113282-30.117187 0-16.609375 13.507813-30.121094 30.113282-30.121094 16.601562 0 30.109375 13.511719 30.109375 30.121094 0 16.605469-13.507813 30.117187-30.109375 30.117187zm0 0"/></svg>