<?xml version="1.0" encoding="UTF-8"?>
<svg xmlns="http://www.w3.org/2000/svg" id="Layer_1" data-name="Layer 1" viewBox="0 0 64 64" width="512" height="512"><path d="M31.77,64a.87.87,0,0,1-.42-.1L2.7,50a1,1,0,0,1-.54-.87V15.45a1,1,0,0,1,.53-.87L31.33.1a1,1,0,0,1,.87,0L61.31,14.58a1,1,0,0,1,.53.87v34a1,1,0,0,1-.56.88L32.18,63.91A1,1,0,0,1,31.77,64ZM4.1,48.56,31.78,62,59.9,48.86V16.05l-28.13-14L4.1,16Z"/><path d="M31.77,30.9a1,1,0,0,1-.44-.11L2.69,16.31a1,1,0,0,1,.87-1.73L31.77,28.84,60.44,14.58a1,1,0,0,1,.87,1.73L32.2,30.8A1.08,1.08,0,0,1,31.77,30.9Z"/><path d="M31.77,64a1,1,0,0,1-1-1V29.92a1,1,0,1,1,1.94,0V63A1,1,0,0,1,31.77,64Z"/><path d="M43.47,36.43a.94.94,0,0,1-.51-.14,1,1,0,0,1-.46-.81l-.16-10.69L14.21,10.49a1,1,0,0,1-.42-1.31,1,1,0,0,1,1.3-.42L43.74,23.33a1,1,0,0,1,.53.85L44.42,34l5.43-2.56V21C39.07,15.36,23.28,7.08,22.18,6.58a1,1,0,0,1-.13-1.79c.52-.26.53-.26,15.1,7.38l14.13,7.42a1,1,0,0,1,.51.86V32a1,1,0,0,1-.55.88l-7.35,3.46A1.06,1.06,0,0,1,43.47,36.43Z"/><path d="M15.45,44.37a1.08,1.08,0,0,1-.43-.1L6.09,40a1,1,0,1,1,.85-1.75l8.93,4.31a1,1,0,0,1-.42,1.85Z"/><path d="M11.52,46.83a1.06,1.06,0,0,1-.42-.09L5.91,44.27a1,1,0,1,1,.83-1.75L11.93,45a1,1,0,0,1,.46,1.3A1,1,0,0,1,11.52,46.83Z"/></svg>
