<?xml version="1.0" encoding="UTF-8"?>
<svg xmlns="http://www.w3.org/2000/svg" id="Line_Expand" data-name="Line Expand" viewBox="0 0 64 64" width="512" height="512"><circle cx="28" cy="59" r="1"/><circle cx="28" cy="53" r="1"/><circle cx="37" cy="25" r="1"/><circle cx="27" cy="25" r="1"/><path d="M32,29.75a.75.75,0,0,0,.75-.75V27a.75.75,0,0,0-1.5,0v2A.75.75,0,0,0,32,29.75Z"/><path d="M34,31.25H30a.75.75,0,0,0-.75.75v1a2.75,2.75,0,0,0,5.5,0V32A.75.75,0,0,0,34,31.25ZM33.25,33a1.25,1.25,0,0,1-2.5,0v-.25h2.5Z"/><path d="M63.416,43.376l-2.245-1.5a17.014,17.014,0,0,0-4.857-13.625l-.119-.119a13.541,13.541,0,0,1-3.914-8.328l-.534-5.875a.749.749,0,0,0-1.163-.556,15.893,15.893,0,0,0-4.19,4.121A13.288,13.288,0,0,0,39.186,8.55a26.365,26.365,0,0,1,1.519-7.293.75.75,0,0,0-.848-.993L38.393.547A25.746,25.746,0,0,0,23.412,9.469a8.555,8.555,0,0,1-4.253.048l-.977-.245a.759.759,0,0,0-.643.137A.749.749,0,0,0,17.25,10v4.528A7.96,7.96,0,0,0,18.5,18.822a25.433,25.433,0,0,0,.378,15.3A4.669,4.669,0,0,1,15.3,29.979l-.015-.167a8.134,8.134,0,0,0-7.06-7.291l-2.127-.265a.75.75,0,0,0-.744,1.116l.093.164a12.262,12.262,0,0,1-.3,12.7l-.082.131A13.411,13.411,0,0,0,3.1,41.7L.584,43.376A.749.749,0,0,0,.25,44v9a.719.719,0,0,0,.015.147l2,10a.749.749,0,0,0,.735.6H61a.749.749,0,0,0,.735-.6l2-10A.719.719,0,0,0,63.75,53V44A.749.749,0,0,0,63.416,43.376ZM46.75,20.5c0-.225-.023-.444-.034-.666a14.618,14.618,0,0,1,3.658-4.442l.413,4.55a15.036,15.036,0,0,0,4.347,9.252l.118.119a15.494,15.494,0,0,1,4.443,12L55.67,42.652a2.323,2.323,0,0,0-1.589,1.933,13.777,13.777,0,0,0-9.241-5.36l-4.257-.533a5.145,5.145,0,0,0-2.833-1.386v-.238a10.774,10.774,0,0,0,4.63-6.318h.12a3.254,3.254,0,0,0,3.25-3.25,3.221,3.221,0,0,0-.3-1.341A13.074,13.074,0,0,0,46.75,20.5Zm-9,18.335a3.658,3.658,0,0,1,2.668,2.228,11.594,11.594,0,0,1,.832,4.322v1.069L37.75,43.7ZM32,37.25A9.26,9.26,0,0,1,22.75,28V21.75h1.593a14.3,14.3,0,0,0,9.481-3.559,7.936,7.936,0,0,0,6.648,3.559h.778V28A9.26,9.26,0,0,1,32,37.25Zm10.674-8.018A10.9,10.9,0,0,0,42.75,28V25.775a1.741,1.741,0,0,1-.076,3.457Zm-4-27.212.2-.04a27.939,27.939,0,0,0-1.151,5.973,13.182,13.182,0,0,0-4.227-.7,22.542,22.542,0,0,0-7.01,1.115A24.258,24.258,0,0,1,38.678,2.02ZM18.75,14.528V10.961l.045.011a10.058,10.058,0,0,0,6.364-.51A21.065,21.065,0,0,1,33.5,8.75,11.763,11.763,0,0,1,45.25,20.5a11.562,11.562,0,0,1-.863,4.365,3.22,3.22,0,0,0-1.637-.59V21a.75.75,0,0,0-.75-.75H40.472a6.451,6.451,0,0,1-5.8-3.585.75.75,0,0,0-1.2-.2,12.826,12.826,0,0,1-9.127,3.78H22.2A6.443,6.443,0,0,1,18.75,14.528Zm2.5,11.247V28a10.9,10.9,0,0,0,.076,1.232,1.741,1.741,0,0,1-.076-3.457Zm-2.23-.35a23.988,23.988,0,0,1,.662-5.168,7.952,7.952,0,0,0,1.568,1.169v2.849A3.225,3.225,0,0,0,19.02,25.425ZM6.324,37.174l.083-.131A13.757,13.757,0,0,0,7.324,23.92l.712.089a6.626,6.626,0,0,1,5.75,5.937l.015.167a6.164,6.164,0,0,0,6.171,5.637.765.765,0,0,0,.649-.329.748.748,0,0,0,.077-.7,24.561,24.561,0,0,1-1.325-4.789,3.218,3.218,0,0,0,2.127.813h.12a10.774,10.774,0,0,0,4.63,6.318V37.3a5.139,5.139,0,0,0-2.917,1.4l-4.173.522a13.777,13.777,0,0,0-9.241,5.36A2.323,2.323,0,0,0,8.33,42.652L4.664,41.43A11.914,11.914,0,0,1,6.324,37.174ZM26.25,38.818v4.818l-3.575,2.818V45.385a11.594,11.594,0,0,1,.832-4.322A3.659,3.659,0,0,1,26.25,38.818ZM1.75,44.4l2.361-1.574,3.744,1.249a.863.863,0,0,1,.468,1.262h0l-1.608,2.68-.964-.483V46a.75.75,0,0,0-1.5,0v2a.751.751,0,0,0,.415.671l2,1a.751.751,0,0,0,.979-.285l1.333-2.222.666,1.07a1.244,1.244,0,0,1-.062,1.41L7.625,52.25H1.75ZM3.615,62.25l-1.7-8.5H8.442l2.55,8.5Zm12.635,0H13.5l2.749-3.664Zm15,0H17.75V49a.75.75,0,0,0-1.5,0v7.086l-3.958,5.276L9.718,52.784a.751.751,0,0,0-.309-.413l1.371-1.827a2.733,2.733,0,0,0,.136-3.1l-.535-.862a12.269,12.269,0,0,1,8.966-5.868l2.841-.355c-.023.051-.052.1-.073.149a13.057,13.057,0,0,0-.94,4.878V48a.75.75,0,0,0,1.214.589l4.5-3.548,4.359,5.231Zm-3.5-18.521V37.87a10.7,10.7,0,0,0,8.5,0v5.859L32,48.828Zm20,18.521V58.578L50.5,62.25Zm0-6.173V49a.75.75,0,0,0-1.5,0V62.25H32.75V50.272l4.329-5.195,4.457,3.512A.75.75,0,0,0,42.75,48V45.385a13.084,13.084,0,0,0-.939-4.878c-.023-.056-.054-.1-.078-.159l2.92.365a12.269,12.269,0,0,1,8.966,5.868l-.535.862a2.733,2.733,0,0,0,.136,3.1l1.371,1.827a.751.751,0,0,0-.309.413l-2.573,8.577ZM60.385,62.25H53.008l2.55-8.5h6.527Zm1.865-10H56.375L54.42,49.644a1.244,1.244,0,0,1-.062-1.41l.666-1.07,1.333,2.222a.751.751,0,0,0,.979.285l2-1A.751.751,0,0,0,59.75,48V46a.75.75,0,0,0-1.5,0v1.536l-.964.483-1.608-2.68h0a.863.863,0,0,1,.468-1.262l3.744-1.249L62.25,44.4Z"/></svg>
