<svg id="Layer_1" enable-background="new 0 0 512.133 512.133" viewBox="0 0 512.133 512.133" xmlns="http://www.w3.org/2000/svg"><g><g><path d="m408.846 466.979c-.199.043-20.188 4.381-48.59 9.676l2.749 14.746c25.449-4.745 44.227-8.733 48.234-9.593h100.761v-15h-102.366z"/><path d="m163.129 493.188c-10.333-3.977-80.784-68.714-143.509-129.146 13.505-19.513 31.49-13.16 53.019 2.465 15.939 11.962 58.438 44.02 71.792 54.136 1.479 22.824 21.463 34.732 43.951 34.506h89.634v-15h-89.634c-6.817 0-29.062-1.618-29.062-22.43 0-9.313 9.017-22.429 29.062-22.429 14.925 0 65.454-.552 88.997-7.653 41.476-14.606 92.858-47.155 136.12-1.669l98.635-1.75-.267-14.998-92.338 1.639c-28.097-27.42-67.387-27.707-102.587-14.666-7.36-16.81-21.478-29.746-38.442-35.922v-124.42c25.559-15.263 60.242-41.358 56.963-75.403h66.557c1.583 2.104 3.387 4.03 5.368 5.758l-32.984 88.723h-22.404v15h8.781c9.921 86.669 132.549 86.604 142.438 0h8.781v-15h-22.404l-32.984-88.723c25.89-22.491 10.08-65.634-24.612-65.757-12.242 0-23.131 5.898-29.979 15h-66.557v-39.356c-34.915 3.005-75.497-30.821-81.85-35.831-14.066 11.649-44.832 34.758-72.067 35.831 0-.001-7.5-.001-7.5-.001v39.356h-64.067c-6.848-9.102-17.737-15-29.98-15-34.701.123-50.495 43.282-24.611 65.758l-32.985 88.724h-22.404v15h8.781c9.921 86.669 132.549 86.604 142.438 0h8.781v-15h-22.404l-32.984-88.723c1.981-1.728 3.785-3.654 5.368-5.758h64.067c-3.448 35.138 33.976 62.054 59.453 76.859v51.7h15v-43.728c3.083 1.485 3.804 1.762 6.255 2.868 3.535-1.599 3.556-1.524 8.745-4.095v112.665c-4.925-.586-10.084-.579-15-.007v-52.703h-15v56.196c-24.879 8.976-42.899 32.393-43.917 60.083-20.692-.524-36.331 10.381-42.227 23.759-17.274-13.059-51.723-39.037-65.715-49.538-33.557-25.459-63.577-24.529-80.812 12.242l4.082 3.942c.334.323 33.823 32.65 68.962 65.302 72.118 67.013 80.593 70.03 84.216 71.32 9.037 3.212 22.518 4.556 38.773 4.556 41.743 0 101.729-8.873 151.341-17.761l-2.646-14.765c-94.913 17.006-159.707 21.92-182.428 13.844zm-83.129-417.739c12.407 0 22.5 10.093 22.5 22.5-1.236 29.849-43.769 29.841-45 0 0-12.407 10.093-22.5 22.5-22.5zm0 204.842c-29.08 0-53.091-22.085-56.161-50.361h112.321c-3.069 28.276-27.08 50.361-56.16 50.361zm41.593-65.361h-83.186l30.207-81.253c7.119 2.348 15.653 2.348 22.772 0zm-4.848-109.481c1.002-4.819 1.002-10.181 0-15h57.302v15zm315.255 174.842c-29.08 0-53.091-22.085-56.161-50.361h112.321c-3.069 28.276-27.08 50.361-56.16 50.361zm41.593-65.361h-83.187l30.207-81.253c7.119 2.348 15.653 2.348 22.772 0zm-41.593-139.481c12.407 0 22.5 10.093 22.5 22.5-1.236 29.849-43.769 29.841-45 0 0-12.407 10.093-22.5 22.5-22.5zm-36.745 15c-1.002 4.819-1.002 10.181 0 15h-59.791v-15zm-140.5 101.213c-20.873-10.007-65.708-37.261-65.708-64.939v-76.152c25.603-3.434 53.698-22.891 64.68-31.169 11.227 8.261 40.214 27.853 66.737 31.201v76.121c-.001 27.678-44.84 54.933-65.709 64.938zm1.245 139.615c20.239 0 38.629 12.13 46.871 30.201-9.491 3.755-21.703 9.337-29.824 11.798-14.067 4.243-42.912 6.241-68.459 6.825 1.387-27.157 23.917-48.824 51.412-48.824z"/><path d="m239.602 122.099-22.385-17.642-9.285 11.781 33.337 26.273 59.763-65.402-11.074-10.118z"/></g><g><path d="m422 416.961h15v15h-15z"/><path d="m452 416.961h15v15h-15z"/></g></g><g/><g/><g/><g/><g/><g/><g/><g/><g/><g/><g/><g/><g/><g/><g/></svg>