<svg id="Layer_1" height="512" viewBox="0 0 512 512" width="512" xmlns="http://www.w3.org/2000/svg" data-name="Layer 1"><path d="m512 80.366a80.357 80.357 0 0 0 -160.153-9.492h-191.694a80.357 80.357 0 1 0 -89.278 89.278v191.7a80.357 80.357 0 1 0 89.278 89.278h191.694a80.357 80.357 0 1 0 89.278-89.278v-191.7a80.467 80.467 0 0 0 70.875-79.786zm-160.447 344.76h-191.106a80.464 80.464 0 0 0 -73.572-73.572v-191.108a80.464 80.464 0 0 0 73.572-73.572h191.106a80.466 80.466 0 0 0 73.572 73.572v191.108a80.466 80.466 0 0 0 -73.572 73.572zm-312.953-295.843a43.942 43.942 0 0 1 83.53 0 64.177 64.177 0 0 1 -83.53 0zm351.267 0a43.942 43.942 0 0 1 83.53 0 64.177 64.177 0 0 1 -83.53 0zm41.767-113.283a64.328 64.328 0 0 1 53.552 100.026 59.95 59.95 0 0 0 -107.118-.02 64.328 64.328 0 0 1 53.566-100.006zm-351.267 0a64.328 64.328 0 0 1 53.552 100.026 59.95 59.95 0 0 0 -107.118-.02 64.328 64.328 0 0 1 53.566-100.006zm-41.767 464.551a43.943 43.943 0 0 1 83.531 0 64.178 64.178 0 0 1 -83.531 0zm95.317-13.257a59.95 59.95 0 0 0 -107.117-.021 64.366 64.366 0 1 1 107.118.021zm255.95 13.257a43.943 43.943 0 0 1 83.531 0 64.178 64.178 0 0 1 -83.531 0zm106.133-48.917a63.989 63.989 0 0 1 -10.814 35.66 59.95 59.95 0 0 0 -107.118-.021 64.355 64.355 0 1 1 117.932-35.639zm-64.366-349.853a28.3 28.3 0 1 0 -28.3-28.3 28.332 28.332 0 0 0 28.3 28.3zm0-40.6a12.3 12.3 0 1 1 -12.3 12.3 12.314 12.314 0 0 1 12.3-12.3zm-351.267 40.6a28.3 28.3 0 1 0 -28.3-28.3 28.332 28.332 0 0 0 28.3 28.3zm0-40.6a12.3 12.3 0 1 1 -12.3 12.3 12.314 12.314 0 0 1 12.3-12.3zm322.966 363.568a28.3 28.3 0 1 0 28.3-28.3 28.332 28.332 0 0 0 -28.3 28.3zm40.6 0a12.3 12.3 0 1 1 -12.3-12.3 12.314 12.314 0 0 1 12.302 12.3zm-363.568-28.3a28.3 28.3 0 1 0 28.3 28.3 28.334 28.334 0 0 0 -28.298-28.301zm0 40.6a12.3 12.3 0 1 1 12.3-12.3 12.315 12.315 0 0 1 -12.298 12.3zm175.635-252.497a91.448 91.448 0 1 0 91.448 91.448 91.552 91.552 0 0 0 -91.448-91.448zm0 166.9a75.448 75.448 0 1 1 75.448-75.452 75.533 75.533 0 0 1 -75.448 75.448zm17.625-99.111a8 8 0 0 0 16 0c0-14.863-10.935-27.36-25.625-30.75v-7.406a8 8 0 0 0 -16 0v7.406c-14.69 3.39-25.625 15.887-25.625 30.75s10.935 27.359 25.625 30.746v30.513c-5.7-2.6-9.625-7.863-9.625-13.939a8 8 0 0 0 -16 0c0 14.863 10.935 27.36 25.625 30.75v7.406a8 8 0 0 0 16 0v-7.406c14.69-3.39 25.625-15.887 25.625-30.75s-10.935-27.361-25.625-30.748v-30.513c5.7 2.594 9.625 7.861 9.625 13.937zm-35.25 0c0-6.076 3.921-11.343 9.625-13.939v27.877c-5.7-2.599-9.625-7.866-9.625-13.942zm35.25 47.326c0 6.076-3.921 11.343-9.625 13.939v-27.881c5.7 2.595 9.625 7.862 9.625 13.938zm-17.625-143.167a119.5 119.5 0 1 0 119.5 119.5 119.635 119.635 0 0 0 -119.5-119.5zm0 223a103.5 103.5 0 1 1 103.5-103.5 103.617 103.617 0 0 1 -103.5 103.5z"/></svg>