<?xml version="1.0" encoding="UTF-8"?>
<svg xmlns="http://www.w3.org/2000/svg" id="icons" viewBox="0 0 60 60" width="512" height="512"><path d="M1.35,36.235c-.175.352-.329.661-.441.931A12.546,12.546,0,0,0,0,41.988V54.357a3.6,3.6,0,0,0,3.155,3.626,3.535,3.535,0,0,0,2.407-.654,3.463,3.463,0,0,0,2.594,1.654,3.5,3.5,0,0,0,2.4-.655,3.465,3.465,0,0,0,2.595,1.655c.112.011.224.017.335.017a3.512,3.512,0,0,0,2.362-.909c.05-.046.1-.093.146-.141.047.048.1.095.145.141a3.521,3.521,0,0,0,2.7.892A3.57,3.57,0,0,0,21.942,57H30a13.153,13.153,0,0,1,6.235,1.653c.352.175.661.329.931.441A12.546,12.546,0,0,0,41.988,60H54.357a3.6,3.6,0,0,0,3.626-3.155,3.525,3.525,0,0,0-.654-2.407,3.463,3.463,0,0,0,1.654-2.594,3.518,3.518,0,0,0-.655-2.4,3.465,3.465,0,0,0,1.655-2.595,3.515,3.515,0,0,0-.892-2.7c-.046-.05-.093-.1-.141-.146.048-.047.095-.1.141-.145a3.523,3.523,0,0,0,.892-2.7A3.57,3.57,0,0,0,57,38.058V30a13.153,13.153,0,0,1,1.653-6.235c.175-.352.329-.661.441-.931A12.546,12.546,0,0,0,60,18.012V5.643a3.6,3.6,0,0,0-3.155-3.626,3.535,3.535,0,0,0-2.407.654,3.463,3.463,0,0,0-2.594-1.654,3.539,3.539,0,0,0-2.4.655A3.465,3.465,0,0,0,46.842.017a3.513,3.513,0,0,0-2.7.892c-.05.046-.1.093-.146.141-.047-.048-.1-.1-.145-.141a3.511,3.511,0,0,0-2.7-.892A3.57,3.57,0,0,0,38.058,3H30A13.153,13.153,0,0,1,23.765,1.35c-.352-.175-.661-.329-.931-.441A12.546,12.546,0,0,0,18.012,0H5.643A3.6,3.6,0,0,0,2.017,3.158a3.525,3.525,0,0,0,.654,2.407A3.463,3.463,0,0,0,1.017,8.159a3.518,3.518,0,0,0,.655,2.4A3.465,3.465,0,0,0,.017,13.158a3.515,3.515,0,0,0,.892,2.7c.046.05.093.1.141.146-.048.047-.1.1-.141.145a3.523,3.523,0,0,0-.892,2.7A3.57,3.57,0,0,0,3,21.942V30A13.153,13.153,0,0,1,1.35,36.235ZM20,56.357a1.593,1.593,0,0,1-1.346,1.636A1.5,1.5,0,0,1,17,56.5a1,1,0,1,0-2,0,1.5,1.5,0,0,1-1.652,1.5A1.593,1.593,0,0,1,12,56.357V55.5a1,1,0,0,0-2,0,1.5,1.5,0,0,1-1.652,1.5A1.593,1.593,0,0,1,7,55.357V54.5a1,1,0,0,0-2,0,1.5,1.5,0,0,1-1.653,1.5A1.593,1.593,0,0,1,2,54.357V41.988a10.559,10.559,0,0,1,.753-4.054c.1-.234.231-.5.384-.807A15.126,15.126,0,0,0,5,30V22H16a1,1,0,0,1,1,1v3c0,.287.012.573.033.846.357,4.738,3.687,7.456,5.286,8.762.251.205.463.376.618.521A9.2,9.2,0,0,1,25.567,41H23a3,3,0,0,0-3,3V56.357ZM32.42,19.147a11.344,11.344,0,0,0,3.274,6.183c.181.169.428.372.72.611,1.373,1.12,3.83,3.134,4.439,6.479a11.344,11.344,0,0,0-6.183,3.274c-.169.181-.372.428-.611.72-1.12,1.373-3.134,3.83-6.479,4.439a11.344,11.344,0,0,0-3.274-6.183c-.181-.169-.428-.372-.72-.611-1.373-1.12-3.83-3.134-4.439-6.479a11.344,11.344,0,0,0,6.183-3.274c.169-.181.372-.428.611-.72C27.061,22.213,29.075,19.756,32.42,19.147Zm25.573,22.2A1.5,1.5,0,0,1,56.5,43a1,1,0,0,0,0,2,1.5,1.5,0,0,1,1.5,1.652A1.593,1.593,0,0,1,56.357,48H55.5a1,1,0,0,0,0,2,1.5,1.5,0,0,1,1.5,1.652A1.593,1.593,0,0,1,55.357,53H54.5a1,1,0,0,0,0,2,1.5,1.5,0,0,1,1.5,1.653A1.593,1.593,0,0,1,54.357,58H41.988a10.559,10.559,0,0,1-4.054-.753c-.234-.1-.5-.231-.807-.384A15.126,15.126,0,0,0,30,55H22V44a1,1,0,0,1,1-1h3c.287,0,.573-.012.846-.033,4.738-.357,7.456-3.687,8.762-5.286.2-.251.376-.463.521-.617A9.2,9.2,0,0,1,41,34.433V37a3,3,0,0,0,3,3H56.357A1.593,1.593,0,0,1,57.993,41.345ZM40,3.643a1.593,1.593,0,0,1,1.346-1.636,1.517,1.517,0,0,1,1.163.383A1.489,1.489,0,0,1,43,3.5a1,1,0,0,0,2,0,1.489,1.489,0,0,1,.491-1.114,1.509,1.509,0,0,1,1.161-.382A1.593,1.593,0,0,1,48,3.643V4.5a1,1,0,0,0,2,0,1.493,1.493,0,0,1,.491-1.114,1.525,1.525,0,0,1,1.161-.382A1.593,1.593,0,0,1,53,4.643V5.5a1,1,0,0,0,2,0,1.487,1.487,0,0,1,.492-1.114,1.512,1.512,0,0,1,1.161-.382A1.593,1.593,0,0,1,58,5.643V18.012a10.559,10.559,0,0,1-.753,4.054c-.1.234-.231.5-.384.807A15.126,15.126,0,0,0,55,30v8H44a1,1,0,0,1-1-1V34c0-.287-.012-.573-.033-.846-.357-4.738-3.687-7.456-5.286-8.762-.251-.2-.463-.376-.618-.521A9.2,9.2,0,0,1,34.433,19H37a3,3,0,0,0,3-3V3.643ZM2.007,18.655A1.5,1.5,0,0,1,3.5,17a1,1,0,1,0,0-2,1.5,1.5,0,0,1-1.5-1.652A1.593,1.593,0,0,1,3.643,12H4.5a1,1,0,0,0,0-2,1.5,1.5,0,0,1-1.5-1.652A1.593,1.593,0,0,1,4.643,7H5.5a1,1,0,0,0,0-2,1.5,1.5,0,0,1-1.5-1.653A1.593,1.593,0,0,1,5.643,2H18.012a10.559,10.559,0,0,1,4.054.753c.234.1.5.231.807.384A15.126,15.126,0,0,0,30,5h8V16a1,1,0,0,1-1,1H34c-.287,0-.573.012-.846.033-4.738.357-7.456,3.687-8.762,5.286-.2.251-.376.463-.521.618A9.2,9.2,0,0,1,19,25.567V23a3,3,0,0,0-3-3H3.643A1.593,1.593,0,0,1,2.007,18.655Z"/></svg>
