<svg id="Layer_1" enable-background="new 0 0 512 512" height="512" viewBox="0 0 512 512" width="512" xmlns="http://www.w3.org/2000/svg"><path d="m125.58 386.42c70.774 70.774 160.609 115.266 252.958 125.279 1.887.205 3.749.306 5.589.306 11.962 0 22.863-4.305 31.789-12.614l80.646-75.077c10.89-10.138 16.461-24.34 15.286-38.965-1.164-14.488-8.842-27.485-21.067-35.657l-74.368-49.714c-19.131-12.79-43.859-10.357-60.132 5.917-3.189 3.189-6.289 6.582-9.569 10.175-14.901 16.315-26.338 27.604-37.814 24.23-63.422-18.638-118.558-73.773-137.196-137.196-1.901-6.467-.322-12.655 4.445-17.422 2.599-2.599 5.629-5.393 8.836-8.352 9.984-9.208 21.301-19.646 28.358-32.067 12.109-21.313 5.968-38.776-1.317-49.673l-49.715-74.369c-8.172-12.224-21.168-19.902-35.657-21.066-14.624-1.175-28.827 4.396-38.965 15.286l-75.078 80.644c-9.587 10.298-13.843 23.223-12.308 37.377 10.013 92.349 54.505 182.184 125.279 252.958zm-91.013-269.894 75.077-80.646c3.521-3.781 8.27-5.88 13.206-5.88.465 0 .931.019 1.398.056 5.371.432 10.03 3.214 13.12 7.835l49.714 74.369c7.947 11.888-.106 22.417-22.44 43.016-3.437 3.169-6.683 6.164-9.71 9.191-12.513 12.512-17.004 30.118-12.014 47.095 21.399 72.817 84.702 136.12 157.52 157.52 4.496 1.321 8.807 1.917 12.945 1.917 23.786-.001 41.789-19.709 55.479-34.699 3.045-3.334 5.922-6.484 8.631-9.193 6.021-6.02 15.169-6.92 22.246-2.189l74.368 49.714c4.622 3.09 7.405 7.75 7.836 13.12.436 5.43-1.687 10.752-5.824 14.604l-80.646 75.077c-3.836 3.572-8.317 5.024-13.702 4.44-177.895-19.289-332.355-173.749-351.645-351.645-.584-5.383.869-9.865 4.441-13.702z"/></svg>